<svg  viewBox="0 0 16 16" id="request-new-16px" xmlns="http://www.w3.org/2000/svg"><g id="SVGRepo_bgCarrier" stroke-width="0"></g><g id="SVGRepo_tracerCarrier" stroke-linecap="round" stroke-linejoin="round"></g><g id="SVGRepo_iconCarrier"> <path id="Path_46" data-name="Path 46" d="M-17,11a2,2,0,0,0,2-2,2,2,0,0,0-2-2,2,2,0,0,0-2,2A2,2,0,0,0-17,11Zm0-3a1,1,0,0,1,1,1,1,1,0,0,1-1,1,1,1,0,0,1-1-1A1,1,0,0,1-17,8Zm2.5,4h-5A2.5,2.5,0,0,0-22,14.5,1.5,1.5,0,0,0-20.5,16h7A1.5,1.5,0,0,0-12,14.5,2.5,2.5,0,0,0-14.5,12Zm1,3h-7a.5.5,0,0,1-.5-.5A1.5,1.5,0,0,1-19.5,13h5A1.5,1.5,0,0,1-13,14.5.5.5,0,0,1-13.5,15ZM-6,2.5v5A2.5,2.5,0,0,1-8.5,10h-2.793l-1.853,1.854A.5.5,0,0,1-13.5,12a.489.489,0,0,1-.191-.038A.5.5,0,0,1-14,11.5v-2a.5.5,0,0,1,.5-.5.5.5,0,0,1,.5.5v.793l1.146-1.147A.5.5,0,0,1-11.5,9h3A1.5,1.5,0,0,0-7,7.5v-5A1.5,1.5,0,0,0-8.5,1h-7A1.5,1.5,0,0,0-17,2.5v3a.5.5,0,0,1-.5.5.5.5,0,0,1-.5-.5v-3A2.5,2.5,0,0,1-15.5,0h7A2.5,2.5,0,0,1-6,2.5ZM-11.5,2V4.5H-9a.5.5,0,0,1,.5.5.5.5,0,0,1-.5.5h-2.5V8a.5.5,0,0,1-.5.5.5.5,0,0,1-.5-.5V5.5H-15a.5.5,0,0,1-.5-.5.5.5,0,0,1,.5-.5h2.5V2a.5.5,0,0,1,.5-.5A.5.5,0,0,1-11.5,2Z" transform="translate(22)"></path> </g></svg>