<?xml version="1.0" encoding="UTF-8" standalone="no"?>
<!-- Created with Inkscape (http://www.inkscape.org/) -->

<svg
   width="218.06958mm"
   height="210.1321mm"
   viewBox="0 0 218.06958 210.1321"
   version="1.1"
   id="svg1121"
   xmlns="http://www.w3.org/2000/svg"
   xmlns:svg="http://www.w3.org/2000/svg">
  <defs
     id="defs1118" />
  <g
     id="layer1"
     transform="translate(4.4333664,-12.786271)">
    <g
       id="g723"
       transform="matrix(0.26458333,0,0,0.26458333,-403.39857,-209.41081)">
      <polygon
         class="cls-3"
         points="1906.1,1375.9 1906,1375.9 1905.9,1375.9 1753.5,1430.3 1753.5,1514.3 1905.9,1607.4 1906,1607.3 1906.1,1607.4 2058.5,1514.3 2058.5,1430.3 "
         id="polygon133"
         style="fill:#ff8100" />
      <polygon
         class="cls-3"
         points="1872.6,1331 1876.6,1245.2 1776.9,1139.7 2035.2,1139.7 1935.4,1245.2 1939.4,1331 2137.8,1409.5 2207.8,1343.1 2045,1212.3 2235.5,1316.8 2254.8,1298.5 2143.8,1073.9 1906,989 1668.2,1073.9 1557.2,1298.5 1576.6,1316.8 1767,1212.3 1604.3,1343.1 1674.3,1409.5 "
         id="polygon135"
         style="fill:#ff8100" />
      <polygon
         class="cls-4"
         points="1906,1375.9 1905.9,1375.9 1753.5,1430.3 1753.5,1514.3 1905.9,1607.3 1906,1607.3 "
         id="polygon137"
         style="fill:#ffa500" />
      <polygon
         class="cls-4"
         points="1668.2,1073.9 1557.2,1298.5 1576.6,1316.8 1767,1212.3 1604.3,1343.1 1674.3,1409.5 1872.6,1331 1876.6,1245.2 1776.9,1139.7 1906,1139.7 1906,989 "
         id="polygon139"
         style="fill:#ffa500" />
      <g
         class="cls-5"
         id="g149"
         style="opacity:0.5">
        <polygon
           class="cls-6"
           points="1754.2,938 1743.5,995.1 1816.7,934.4 1507.9,839.8 1629.3,938 "
           id="polygon141"
           style="fill:#e5d1d4" />
        <polygon
           class="cls-7"
           points="1741.7,839.8 1507.9,839.8 1816.7,934.4 "
           id="polygon143"
           style="fill:#f0f0f0" />
        <polygon
           class="cls-6"
           points="2057.9,938 2068.6,995.1 1995.4,934.4 2304.2,839.8 2182.8,938 "
           id="polygon145"
           style="fill:#e5d1d4" />
        <polygon
           class="cls-7"
           points="2070.4,839.8 2304.2,839.8 1995.4,934.4 "
           id="polygon147"
           style="fill:#f0f0f0" />
      </g>
      <polygon
         class="cls-8"
         points="1934,1633.9 1934.1,1634 2086.5,1540.9 2086.5,1456.9 2058.5,1447 2058.5,1514.3 1906.1,1607.4 1906,1607.3 1905.9,1607.4 1905.9,1607.3 1781.5,1531.4 1781.5,1540.9 1933.8,1633.9 1933.9,1634 "
         id="polygon151"
         style="fill:#194b5b" />
      <polygon
         class="cls-8"
         points="1767,1212.3 1593.9,1307.3 1585.2,1325.1 1604.3,1343.1 "
         id="polygon153"
         style="fill:#194b5b" />
      <polygon
         class="cls-8"
         points="2137.8,1409.5 1966.6,1341.8 1967.4,1357.7 2165.7,1436.1 2238.1,1367.5 2207.8,1343.1 "
         id="polygon155"
         style="fill:#194b5b" />
      <polygon
         class="cls-8"
         points="2045,1212.3 2089.2,1247.8 2263.4,1343.4 2282.8,1325.1 2171.8,1100.5 2153.8,1094.1 2254.8,1298.5 2235.5,1316.8 "
         id="polygon157"
         style="fill:#194b5b" />
      <polygon
         class="cls-8"
         points="1816.7,934.4 1780.7,964.2 1769.9,1021.7 1840,963.6 "
         id="polygon159"
         style="fill:#194b5b" />
      <polygon
         class="cls-8"
         points="1629.3,938 1662,964.6 1749.2,964.6 1754.2,938 "
         id="polygon161"
         style="fill:#194b5b" />
      <polygon
         class="cls-8"
         points="2025,959 2095.7,1017.5 2085.8,964.6 2210.7,964.6 2332.1,866.4 2271.3,866.4 2182.8,938 2057.9,938 2068.6,995.1 "
         id="polygon163"
         style="fill:#194b5b" />
      <polygon
         class="cls-8"
         points="1872.6,1331 1674.3,1409.5 1702.2,1436.1 1900.6,1357.7 1904.6,1274.8 1876.6,1245.2 "
         id="polygon165"
         style="fill:#194b5b" />
      <polygon
         class="cls-8"
         points="2035.2,1139.7 1776.9,1139.7 1802.1,1166.4 1802.1,1166.3 2010,1166.3 "
         id="polygon167"
         style="fill:#194b5b" />
    </g>
  </g>
</svg>
