<svg viewBox="0 0 16.00 16.00" xmlns="http://www.w3.org/2000/svg" fill="#ffffff"><g id="SVGRepo_bgCarrier" stroke-width="0"></g><g id="SVGRepo_tracerCarrier" stroke-linecap="round" stroke-linejoin="round"></g><g id="SVGRepo_iconCarrier"> <path d="m 4 3 c -0.554688 0 -1 0.445312 -1 1 s 0.445312 1 1 1 s 1 -0.445312 1 -1 s -0.445312 -1 -1 -1 z m 4 0 c -0.554688 0 -1 0.445312 -1 1 s 0.445312 1 1 1 s 1 -0.445312 1 -1 s -0.445312 -1 -1 -1 z m 4 0 c -0.554688 0 -1 0.445312 -1 1 s 0.445312 1 1 1 s 1 -0.445312 1 -1 s -0.445312 -1 -1 -1 z m -8 4 c -0.554688 0 -1 0.445312 -1 1 s 0.445312 1 1 1 s 1 -0.445312 1 -1 s -0.445312 -1 -1 -1 z m 4 0 c -0.554688 0 -1 0.445312 -1 1 s 0.445312 1 1 1 s 1 -0.445312 1 -1 s -0.445312 -1 -1 -1 z m 4 0 c -0.554688 0 -1 0.445312 -1 1 s 0.445312 1 1 1 s 1 -0.445312 1 -1 s -0.445312 -1 -1 -1 z m -8 4 c -0.554688 0 -1 0.445312 -1 1 s 0.445312 1 1 1 s 1 -0.445312 1 -1 s -0.445312 -1 -1 -1 z m 4 0 c -0.554688 0 -1 0.445312 -1 1 s 0.445312 1 1 1 s 1 -0.445312 1 -1 s -0.445312 -1 -1 -1 z m 4 0 c -0.554688 0 -1 0.445312 -1 1 s 0.445312 1 1 1 s 1 -0.445312 1 -1 s -0.445312 -1 -1 -1 z m 0 0" fill="#ffffff"></path> </g></svg>